<?xml version="1.0" encoding="utf-8"?>
<!-- Generator: Adobe Illustrator 16.0.0, SVG Export Plug-In . SVG Version: 6.00 Build 0)  -->
<!DOCTYPE svg PUBLIC "-//W3C//DTD SVG 1.1//EN" "http://www.w3.org/Graphics/SVG/1.1/DTD/svg11.dtd">
<svg version="1.1" id="벡터_레이어_xA0_이미지_1_"
	 xmlns="http://www.w3.org/2000/svg" xmlns:xlink="http://www.w3.org/1999/xlink" x="0px" y="0px" width="40.167px"
	 height="17.333px" viewBox="0 0 40.167 17.333" enable-background="new 0 0 40.167 17.333" xml:space="preserve">
<g>
	<path d="M30.274,0.49c-4.615,0-8.397,3.292-8.777,7.484c-0.609-0.216-1.69-0.466-2.832-0.035C18.268,3.762,14.492,0.49,9.892,0.49
		c-4.865,0-8.808,3.662-8.808,8.177c0,4.516,3.942,8.177,8.808,8.177c4.84,0,8.766-3.621,8.806-8.105
		c1.163-0.555,2.34-0.154,2.772,0.031c0.06,4.47,3.978,8.074,8.805,8.074c4.867,0,8.81-3.661,8.81-8.177
		C39.084,4.152,35.142,0.49,30.274,0.49z M9.892,16.234c-4.5,0-8.149-3.386-8.149-7.567s3.649-7.567,8.149-7.567
		c4.502,0,8.148,3.386,8.148,7.567S14.394,16.234,9.892,16.234z M30.274,16.234c-4.504,0-8.148-3.386-8.148-7.567
		s3.645-7.567,8.148-7.567c4.499,0,8.15,3.386,8.15,7.567S34.773,16.234,30.274,16.234z"/>
	<ellipse opacity="0.6" fill="#FFB6F5" cx="9.891" cy="8.667" rx="8.149" ry="7.567"/>
	<g opacity="0.4">
		<path fill="#FFE1FC" d="M4.167,8.695c-0.032,0-0.068,0-0.102-0.008C3.657,8.632,3.371,8.255,3.425,7.845
			c0.328-2.376,2.043-4.409,4.272-5.064c0.395-0.116,0.811,0.11,0.929,0.507C8.74,3.685,8.515,4.1,8.118,4.215
			c-1.675,0.492-2.965,2.03-3.21,3.832C4.857,8.422,4.537,8.695,4.167,8.695z"/>
	</g>
	<g opacity="0.4">
		<path fill="#A866CC" d="M9.981,15.366c-0.388,0-0.719-0.302-0.745-0.694c-0.028-0.41,0.28-0.77,0.692-0.801
			c1.945-0.14,5.263-1.031,5.612-5.433c0.031-0.411,0.393-0.72,0.803-0.69c0.413,0.037,0.723,0.397,0.688,0.809
			c-0.168,2.105-0.927,3.775-2.261,4.969c-1.19,1.066-2.829,1.701-4.735,1.838C10.019,15.366,9.999,15.366,9.981,15.366z"/>
	</g>
	<path opacity="0.6" fill="#FFB6F5" d="M38.425,8.667c0,4.182-3.651,7.567-8.15,7.567c-4.504,0-8.148-3.386-8.148-7.567
		s3.645-7.567,8.148-7.567C34.773,1.099,38.425,4.485,38.425,8.667z"/>
	<g opacity="0.4">
		<path fill="#FFE1FC" d="M24.552,8.695c-0.034,0-0.067,0-0.103-0.008c-0.408-0.055-0.694-0.432-0.64-0.842
			c0.325-2.376,2.041-4.409,4.271-5.064c0.396-0.116,0.808,0.11,0.93,0.507c0.114,0.397-0.111,0.813-0.51,0.928
			c-1.671,0.492-2.961,2.03-3.209,3.832C25.242,8.422,24.922,8.695,24.552,8.695z"/>
	</g>
	<g opacity="0.4">
		<path fill="#A866CC" d="M30.365,15.366c-0.388,0-0.716-0.302-0.746-0.694c-0.027-0.41,0.279-0.77,0.693-0.801
			c1.944-0.14,5.263-1.031,5.61-5.433c0.032-0.411,0.394-0.72,0.804-0.69c0.415,0.037,0.722,0.397,0.689,0.809
			c-0.166,2.105-0.93,3.775-2.261,4.969c-1.192,1.066-2.828,1.701-4.734,1.838C30.402,15.366,30.383,15.366,30.365,15.366z"/>
	</g>
</g>
</svg>
