<?xml version="1.0" encoding="utf-8"?>
<!-- Generator: Adobe Illustrator 16.0.0, SVG Export Plug-In . SVG Version: 6.00 Build 0)  -->
<!DOCTYPE svg PUBLIC "-//W3C//DTD SVG 1.1//EN" "http://www.w3.org/Graphics/SVG/1.1/DTD/svg11.dtd">
<svg version="1.1" id="벡터_레이어_xA0_이미지_1_"
	 xmlns="http://www.w3.org/2000/svg" xmlns:xlink="http://www.w3.org/1999/xlink" x="0px" y="0px" width="11.938px" height="7.75px"
	 viewBox="0 0 11.938 7.75" enable-background="new 0 0 11.938 7.75" xml:space="preserve">
<path d="M10.971,1.866C8.218,1.248,3.51,1.314,1.306,1.63C0.634,3.522,1.446,6.259,1.874,6.462c0.343,0.087,1.248,0.132,2.352,0.146
	c-0.089-0.586-0.173-1.681-0.093-2.16c0.056,0.486,0.27,1.294,0.757,2.164c1.417,0.005,3.024-0.036,4.167-0.103
	c-0.129-0.46-0.283-1.262-0.119-2.062C9.012,4.99,9.131,5.922,9.43,6.485c0.647-0.045,1.082-0.1,1.143-0.16
	C10.326,4.351,10.896,2.357,10.971,1.866z"/>
</svg>
