<?xml version="1.0" encoding="utf-8"?>
<!-- Generator: Adobe Illustrator 16.0.0, SVG Export Plug-In . SVG Version: 6.00 Build 0)  -->
<!DOCTYPE svg PUBLIC "-//W3C//DTD SVG 1.1//EN" "http://www.w3.org/Graphics/SVG/1.1/DTD/svg11.dtd">
<svg version="1.1" id="벡터_레이어_xA0_이미지_1_"
	 xmlns="http://www.w3.org/2000/svg" xmlns:xlink="http://www.w3.org/1999/xlink" x="0px" y="0px" width="50.75px" height="50.75px"
	 viewBox="0 0 50.75 50.75" enable-background="new 0 0 50.75 50.75" xml:space="preserve">
<path fill="#FFFFFF" d="M44.554,30.322c-3.539,10.363-6.41,18.501-18.924,18.501c-12.447,0-14.709-8.204-18.82-18.501
	c-3.596-8.974,8.449-20.51,18.867-20.51C36.106,9.813,47.679,21.18,44.554,30.322z"/>
<path fill="#DD8781" d="M14.825,39.746c-1.238,0-2.393,0.338-3.379,0.92c2.16,3.877,4.947,6.712,9.791,7.763
	c0.197-0.619,0.291-1.285,0.291-1.971C21.528,42.75,18.534,39.746,14.825,39.746z"/>
<path fill="#DD8781" d="M30.032,46.448c0,0.695,0.104,1.38,0.311,2.019c4.947-1.014,7.912-3.773,10.119-7.594
	c-1.061-0.714-2.348-1.136-3.727-1.136C33.036,39.737,30.032,42.741,30.032,46.448z"/>
<path d="M25.63,49.03c-5.379,0-9.227-1.512-12.109-4.76c-2.617-2.956-4.205-7.002-6.053-11.695
	c-0.273-0.704-0.564-1.437-0.855-2.169C5.29,27.093,5.974,23.17,8.546,19.377c1.822-2.693,4.496-5.153,7.529-6.927
	c1.539-0.892,3.125-1.596,4.721-2.084c1.672-0.507,3.314-0.761,4.881-0.761c3.004,0,6.205,0.92,9.266,2.676
	c2.9,1.651,5.51,3.979,7.359,6.57c1.322,1.858,2.225,3.773,2.674,5.679c0.471,2.065,0.395,4.036-0.225,5.867
	c-1.727,5.031-3.352,9.79-6.139,13.188C35.581,47.303,31.45,49.03,25.63,49.03z M25.677,10.019c-5.969,0-13.029,4.036-16.793,9.594
	c-2.486,3.68-3.162,7.453-1.887,10.635c0.291,0.741,0.582,1.474,0.863,2.178c3.689,9.405,6.355,16.192,17.77,16.192
	c5.689,0,9.715-1.681,12.662-5.285c2.742-3.351,4.355-8.072,6.064-13.075c1.164-3.408,0.32-7.369-2.393-11.171
	C38.087,13.661,31.544,10.019,25.677,10.019z"/>
<g>
	<path fill="#FDA56F" d="M7.411,31.861c1.145-0.356,3.734-6.927,17.59-6.927c13.471,0,17.375,5.979,19.027,6.927
		c1.68,0,3.84-2.262,4.814-3.68c5.285-7.565-5.359-27.005-23.654-27.005c-17.713,0-29.117,18.811-22.848,26.949
		C3.562,29.703,6.735,31.552,7.411,31.861z"/>
	<path d="M7.392,32.087L7.317,32.05c-0.732-0.348-3.887-2.178-5.135-3.802c-1.211-1.577-1.83-3.633-1.775-5.951
		c0.047-2.206,0.695-4.646,1.879-7.04c1.877-3.83,4.984-7.341,8.738-9.885C15.276,2.49,20.177,0.97,25.188,0.97
		c2.629,0,5.219,0.403,7.68,1.192c2.279,0.732,4.467,1.802,6.494,3.163c3.662,2.479,6.777,5.942,8.777,9.771
		c1.285,2.46,2.055,4.966,2.225,7.256c0.188,2.366-0.281,4.422-1.352,5.951c-0.582,0.845-1.398,1.746-2.178,2.413
		c-1.051,0.9-2,1.352-2.807,1.352h-0.057l-0.047-0.028c-0.301-0.169-0.666-0.498-1.127-0.91c-2.186-1.943-6.73-5.989-17.797-5.989
		c-11.039,0-14.877,4.224-16.52,6.026c-0.441,0.488-0.732,0.808-1.014,0.892L7.392,32.087z M25.001,24.719
		c11.227,0,15.846,4.12,18.07,6.11c0.422,0.366,0.75,0.666,1.014,0.826c0.686-0.019,1.539-0.451,2.486-1.258
		c0.752-0.639,1.541-1.512,2.104-2.328c2.037-2.919,1.689-7.819-0.9-12.785C44.423,8.873,36.501,1.383,25.188,1.383
		c-10.795,0-19.092,7.059-22.537,14.062c-2.393,4.872-2.449,9.565-0.141,12.55c1.145,1.483,4.074,3.229,4.9,3.643
		c0.178-0.104,0.441-0.395,0.77-0.751c0.836-0.92,2.252-2.479,4.852-3.793C16.159,25.525,20.187,24.719,25.001,24.719z"/>
</g>
<g>
	<path fill="#271A12" d="M28.175,3.908c0,0.826-1.24,1.492-2.76,1.492c-1.531,0-2.77-0.666-2.77-1.492
		c0-0.817,1.238-1.483,2.77-1.483C26.935,2.425,28.175,3.091,28.175,3.908z"/>
	<path d="M25.415,5.607c-1.672,0-2.977-0.742-2.977-1.699c0-0.948,1.305-1.689,2.977-1.689c1.66,0,2.965,0.741,2.965,1.689
		C28.38,4.865,27.075,5.607,25.415,5.607z M25.415,2.632c-1.391,0-2.563,0.581-2.563,1.276c0,0.694,1.172,1.286,2.563,1.286
		c1.379,0,2.553-0.592,2.553-1.286C27.968,3.213,26.794,2.632,25.415,2.632z"/>
</g>
</svg>
