<?xml version="1.0" encoding="utf-8"?>
<!-- Generator: Adobe Illustrator 16.0.0, SVG Export Plug-In . SVG Version: 6.00 Build 0)  -->
<!DOCTYPE svg PUBLIC "-//W3C//DTD SVG 1.1//EN" "http://www.w3.org/Graphics/SVG/1.1/DTD/svg11.dtd">
<svg version="1.1" id="벡터_레이어_xA0_이미지_1_"
	 xmlns="http://www.w3.org/2000/svg" xmlns:xlink="http://www.w3.org/1999/xlink" x="0px" y="0px" width="24.5px" height="10.462px"
	 viewBox="0 0 24.5 10.462" enable-background="new 0 0 24.5 10.462" xml:space="preserve">
<g>
	<circle cx="4.896" cy="5.792" r="2.986"/>
	<path d="M7.596,2.789l0.42-0.483C8.079,2.232,8.07,2.122,7.997,2.059S7.813,2.002,7.749,2.075L7.325,2.566
		c-0.634-0.478-1.41-0.774-2.254-0.81V1.12c0-0.099-0.078-0.177-0.176-0.177c-0.096,0-0.175,0.078-0.175,0.177v0.637
		C3.824,1.795,3.006,2.126,2.354,2.655L1.857,2.171C1.788,2.104,1.677,2.104,1.609,2.175c-0.068,0.069-0.067,0.18,0.002,0.247
		L2.09,2.89C1.33,3.624,0.856,4.653,0.856,5.792c0,2.228,1.813,4.04,4.039,4.04c2.229,0,4.04-1.813,4.04-4.04
		C8.936,4.601,8.419,3.529,7.596,2.789z M4.896,9.48c-2.033,0-3.688-1.654-3.688-3.688s1.654-3.688,3.688-3.688
		c2.034,0,3.689,1.654,3.689,3.688S6.93,9.48,4.896,9.48z"/>
	<circle cx="19.605" cy="5.792" r="2.986"/>
	<path d="M22.306,2.789l0.418-0.483c0.064-0.073,0.057-0.184-0.018-0.247c-0.072-0.063-0.184-0.057-0.248,0.017l-0.424,0.491
		c-0.634-0.478-1.41-0.774-2.253-0.81V1.12c0-0.099-0.079-0.177-0.176-0.177s-0.175,0.078-0.175,0.177v0.637
		c-0.896,0.038-1.716,0.369-2.367,0.898l-0.498-0.484c-0.067-0.067-0.179-0.066-0.247,0.004c-0.067,0.069-0.065,0.18,0.003,0.247
		l0.477,0.468c-0.76,0.734-1.231,1.764-1.231,2.902c0,2.228,1.812,4.04,4.039,4.04s4.04-1.813,4.04-4.04
		C23.646,4.601,23.127,3.529,22.306,2.789z M19.605,9.48c-2.034,0-3.688-1.654-3.688-3.688s1.654-3.688,3.688-3.688
		s3.688,1.654,3.688,3.688S21.64,9.48,19.605,9.48z"/>
</g>
</svg>
