<?xml version="1.0" encoding="utf-8"?>
<!-- Generator: Adobe Illustrator 16.0.0, SVG Export Plug-In . SVG Version: 6.00 Build 0)  -->
<!DOCTYPE svg PUBLIC "-//W3C//DTD SVG 1.1//EN" "http://www.w3.org/Graphics/SVG/1.1/DTD/svg11.dtd">
<svg version="1.1" id="벡터_레이어_xA0_이미지_1_"
	 xmlns="http://www.w3.org/2000/svg" xmlns:xlink="http://www.w3.org/1999/xlink" x="0px" y="0px" width="26px" height="7.13px"
	 viewBox="0 0 26 7.13" enable-background="new 0 0 26 7.13" xml:space="preserve">
<g>
	<path d="M25.498,3.333c-0.007-0.057-0.037-0.108-0.082-0.144c-1.052-0.796-2.554-1.253-4.122-1.253
		c-1.597,0-3.069,0.459-4.042,1.259c-0.087,0.071-0.104,0.198-0.037,0.289c0.797,1.086,2.255,1.709,4.001,1.709
		c1.774,0,3.397-0.652,4.237-1.701C25.489,3.447,25.505,3.39,25.498,3.333z M17.687,3.396c0.439-0.323,0.977-0.578,1.576-0.754
		c-0.072,0.198-0.111,0.41-0.111,0.63c0,0.494,0.196,0.946,0.521,1.3C18.847,4.349,18.152,3.943,17.687,3.396z M23.38,4.393
		c0.237-0.322,0.375-0.707,0.375-1.121c0-0.179-0.026-0.353-0.075-0.518c0.476,0.166,0.913,0.382,1.295,0.642
		C24.581,3.813,24.025,4.154,23.38,4.393z"/>
	<path d="M8.824,3.333C8.816,3.276,8.787,3.225,8.741,3.189C7.69,2.394,6.188,1.937,4.62,1.937c-1.597,0-3.07,0.459-4.043,1.259
		C0.49,3.267,0.475,3.394,0.541,3.484C1.337,4.57,2.795,5.193,4.542,5.193c1.773,0,3.397-0.652,4.237-1.701
		C8.814,3.447,8.831,3.39,8.824,3.333z M1.012,3.396c0.439-0.323,0.978-0.578,1.577-0.754c-0.072,0.198-0.112,0.41-0.112,0.63
		c0,0.494,0.196,0.946,0.522,1.3C2.172,4.349,1.478,3.943,1.012,3.396z M6.706,4.393C6.942,4.07,7.08,3.686,7.08,3.271
		c0-0.179-0.026-0.353-0.074-0.518C7.48,2.92,7.918,3.136,8.3,3.396C7.906,3.813,7.352,4.154,6.706,4.393z"/>
</g>
</svg>
