<?xml version="1.0" encoding="utf-8"?>
<!-- Generator: Adobe Illustrator 16.0.0, SVG Export Plug-In . SVG Version: 6.00 Build 0)  -->
<!DOCTYPE svg PUBLIC "-//W3C//DTD SVG 1.1//EN" "http://www.w3.org/Graphics/SVG/1.1/DTD/svg11.dtd">
<svg version="1.1" id="벡터_레이어_xA0_이미지_1_"
	 xmlns="http://www.w3.org/2000/svg" xmlns:xlink="http://www.w3.org/1999/xlink" x="0px" y="0px" width="6.584px" height="5.806px"
	 viewBox="0 0 6.584 5.806" enable-background="new 0 0 6.584 5.806" xml:space="preserve">
<path d="M5.503,2.775C5.368,2.584,5.174,2.47,4.956,2.455c-0.103-0.007-0.19,0.069-0.197,0.172C4.752,2.728,4.828,2.815,4.932,2.825
	c0.069,0.004,0.13,0.027,0.184,0.072c-0.312,0.3-1.254,0.505-2.125,0.46C2.332,3.322,1.822,3.149,1.578,2.882
	c0.067-0.026,0.135-0.033,0.204-0.019c0.099,0.022,0.198-0.038,0.221-0.14c0.023-0.1-0.039-0.198-0.14-0.222
	C1.652,2.455,1.433,2.508,1.247,2.65C1.054,2.8,0.915,3.038,0.91,3.229C0.908,3.331,0.986,3.415,1.091,3.418h0.004
	c0.101,0,0.184-0.079,0.186-0.18c0-0.021,0.011-0.056,0.032-0.099c0.315,0.341,0.9,0.548,1.66,0.586
	c0.08,0.006,0.164,0.007,0.248,0.007c0.757,0,1.646-0.166,2.079-0.507c0.008,0.046,0.007,0.083,0.001,0.103
	C5.274,3.427,5.332,3.527,5.432,3.556c0.016,0.004,0.033,0.007,0.05,0.007c0.082,0,0.153-0.056,0.176-0.136
	C5.709,3.242,5.644,2.974,5.503,2.775z"/>
</svg>
