<?xml version="1.0" encoding="utf-8"?>
<!-- Generator: Adobe Illustrator 16.0.0, SVG Export Plug-In . SVG Version: 6.00 Build 0)  -->
<!DOCTYPE svg PUBLIC "-//W3C//DTD SVG 1.1//EN" "http://www.w3.org/Graphics/SVG/1.1/DTD/svg11.dtd">
<svg version="1.1" id="벡터_레이어_xA0_이미지_1_"
	 xmlns="http://www.w3.org/2000/svg" xmlns:xlink="http://www.w3.org/1999/xlink" x="0px" y="0px" width="6.584px" height="5.806px"
	 viewBox="0 0 6.584 5.806" enable-background="new 0 0 6.584 5.806" xml:space="preserve">
<path d="M5.282,2.669C4.838,1.94,4.052,1.203,3.291,1.202c-0.761,0-1.563,0.728-1.986,1.403c-0.31,0.496-0.41,0.938-0.276,1.211
	c0.189,0.39,0.695,0.585,1.185,0.681c0.226,0.069,0.543,0.106,0.944,0.106c0.274,0,0.581-0.019,0.844-0.05
	c0.27-0.033,0.393-0.064,0.458-0.101c0.521-0.122,0.948-0.33,1.104-0.634C5.737,3.483,5.425,2.903,5.282,2.669z M2.45,3.434
	c0.064-0.02,0.269-0.042,0.582-0.047c-0.023,0.301-0.04,0.609-0.021,0.848c-0.242-0.01-0.468-0.033-0.672-0.07
	C2.283,4.024,2.364,3.546,2.45,3.434z M4.238,4.141C3.974,4.193,3.674,4.227,3.364,4.235C3.338,3.992,3.366,3.601,3.384,3.39
	c0.405,0.014,0.686,0.058,0.757,0.098C4.225,3.543,4.261,3.939,4.238,4.141z M5.251,3.66C5.173,3.813,4.93,3.951,4.593,4.053
	c0.004-0.169-0.012-0.361-0.045-0.498C4.504,3.37,4.426,3.245,4.315,3.184c-0.232-0.135-0.9-0.149-1.178-0.149
	c-0.327,0-0.745,0.019-0.878,0.103c-0.204,0.129-0.3,0.645-0.286,0.938c-0.321-0.1-0.548-0.242-0.629-0.411
	C1.281,3.535,1.339,3.217,1.604,2.792C1.987,2.176,2.69,1.553,3.293,1.553c0.618,0.001,1.309,0.675,1.688,1.3
	C5.252,3.296,5.291,3.583,5.251,3.66z"/>
</svg>
