<?xml version="1.0" encoding="utf-8"?>
<!-- Generator: Adobe Illustrator 16.0.0, SVG Export Plug-In . SVG Version: 6.00 Build 0)  -->
<!DOCTYPE svg PUBLIC "-//W3C//DTD SVG 1.1//EN" "http://www.w3.org/Graphics/SVG/1.1/DTD/svg11.dtd">
<svg version="1.1" id="벡터_레이어_xA0_이미지_1_"
	 xmlns="http://www.w3.org/2000/svg" xmlns:xlink="http://www.w3.org/1999/xlink" x="0px" y="0px" width="50.75px"
	 height="67.249px" viewBox="0 0 50.75 67.249" enable-background="new 0 0 50.75 67.249" xml:space="preserve">
<g>
	<path fill-rule="evenodd" clip-rule="evenodd" d="M0.375,26.774c0.039-0.412,0.077-0.825,0.118-1.237
		c0.235-2.386,0.779-4.687,1.83-6.859c0.798-1.649,1.514-3.339,2.324-4.982c0.909-1.844,2.081-3.523,3.412-5.091
		c0.348-0.409,0.692-0.823,1.066-1.207C9.429,7.085,9.54,6.724,9.573,6.306c0.139-1.728,1.021-3.07,2.388-4.021
		c1.178-0.819,2.575-1.05,4.013-0.82c0.245,0.039,0.519,0.109,0.706,0.258c0.369,0.294,0.712,0.201,1.091,0.064
		c1.366-0.492,2.77-0.837,4.203-1.068c1.902-0.309,3.814-0.351,5.733-0.278c1.887,0.071,3.759,0.267,5.608,0.663
		c1.9,0.408,3.662,1.171,5.372,2.064c3.146,1.642,5.936,3.751,8.129,6.553c2.299,2.938,3.464,6.315,3.532,10.059
		c0.027,1.512,0.092,3.027-0.183,4.521c-0.355,1.932-1.037,3.752-2.158,5.374c-1.013,1.464-1.49,3.068-1.447,4.833
		c0.033,1.368,0.151,2.736,0.132,4.103c-0.058,4.067-2.007,6.977-5.565,8.85c-1.214,0.639-2.518,1.004-3.89,1.111
		c-0.068,0.006-0.137,0.021-0.278,0.045c1.374,3.086,2.714,6.16,2.925,9.539c0.584,0.113,1.089,0.217,1.597,0.305
		c0.091,0.016,0.195-0.031,0.289-0.063c0.891-0.291,1.626-0.021,2.108,0.785c0.484,0.811,0.556,1.709,0.519,2.617
		c-0.019,0.441-0.089,0.887-0.198,1.314c-0.134,0.525-0.489,0.891-0.975,1.146c-0.988,0.52-2.067,0.684-3.149,0.859
		c-1.784,0.291-3.587,0.367-5.386,0.506c-0.807,0.061-1.595,0.359-2.393,0.549c-0.816,0.195-1.628,0.418-2.452,0.578
		c-1.444,0.279-2.765-0.145-4.044-0.775c-0.128-0.063-0.312-0.088-0.446-0.049c-1.459,0.418-2.813,0.258-4.149-0.512
		c-1.864-1.074-2.825-2.719-3.293-4.738c-0.307-1.324-0.138-2.621,0.207-3.904c0.344-1.277,0.877-2.48,1.451-3.668
		c0.348-0.717,0.66-1.449,1.003-2.207c-0.658-0.063-1.252-0.102-1.842-0.178c-2.851-0.369-5.515-1.313-8.009-2.715
		c-4.61-2.594-7.759-6.41-9.377-11.453c-0.533-1.661-0.833-3.382-0.919-5.132c-0.005-0.109-0.033-0.217-0.051-0.326
		C0.375,29.655,0.375,28.215,0.375,26.774z M9.886,7.917c-0.292,0.341-0.554,0.664-0.833,0.97c-1.685,1.849-3.064,3.898-4.101,6.177
		c-0.587,1.288-1.135,2.596-1.76,3.865c-1.281,2.602-1.811,5.366-1.889,8.237c-0.022,0.831-0.014,1.663-0.024,2.495
		c-0.022,1.563,0.096,3.115,0.409,4.648c0.697,3.407,2.188,6.418,4.525,9c1.169,1.291,2.45,2.469,3.949,3.357
		c2.402,1.424,4.934,2.559,7.719,3.008c1.006,0.162,2,0.414,3.052,0.172c0.961-0.219,1.958-0.277,2.934-0.441
		c2.531-0.428,4.92-1.232,7.162-2.52c2.947-1.691,5.629-3.727,8.066-6.073c1.165-1.122,2.179-2.401,3.271-3.601
		c1.606-1.765,2.678-3.868,3.796-5.943c0.378-0.701,0.721-1.425,1.138-2.103c1.391-2.255,2.204-4.674,2.179-7.343
		c-0.009-0.912-0.012-1.826-0.068-2.735c-0.05-0.797-0.098-1.605-0.273-2.379c-0.544-2.396-1.537-4.596-3.057-6.543
		c-1.189-1.525-2.672-2.73-4.173-3.931c-1.994-1.595-4.232-2.747-6.592-3.637c-2.253-0.851-4.642-1.168-7.047-1.262
		c-1.134-0.044-2.271-0.025-3.405-0.003c-1.562,0.03-3.11,0.188-4.62,0.612c-0.707,0.199-1.405,0.428-2.132,0.65
		c0.055,0.09,0.073,0.14,0.106,0.173c0.639,0.642,0.702,1.437,0.57,2.265c-0.245,1.538-1.082,2.718-2.265,3.691
		C14.327,10.534,10.879,9.763,9.886,7.917z M24.685,65.192c-0.092-0.121-0.18-0.205-0.23-0.309c-0.122-0.252-0.26-0.504-0.33-0.771
		c-0.071-0.273,0.092-0.477,0.342-0.51c0.268-0.035,0.399,0.111,0.493,0.35c0.078,0.197,0.171,0.418,0.323,0.555
		c1.147,1.027,2.502,1.494,4.039,1.426c0.886-0.039,1.727-0.297,2.574-0.533c0.863-0.24,1.729-0.516,2.613-0.627
		c1.636-0.205,3.288-0.27,4.927-0.453c0.88-0.098,1.757-0.277,2.615-0.496c0.846-0.215,1.438-0.703,1.465-1.686
		c0.022-0.822,0.065-1.641-0.339-2.4c-0.307-0.574-0.521-0.652-1.157-0.498c-0.265,0.064-0.557,0.074-0.829,0.041
		c-0.701-0.084-1.396-0.225-2.097-0.309c-0.954-0.113-1.911-0.191-2.866-0.287c-0.613-0.064-1.224-0.145-1.837-0.199
		c-0.323-0.027-0.493-0.162-0.494-0.449c0-0.273,0.139-0.424,0.484-0.398c0.966,0.074,1.929,0.178,2.893,0.275
		c0.579,0.061,1.155,0.133,1.776,0.203c-0.054-0.326-0.087-0.605-0.147-0.879c-0.254-1.141-0.411-2.316-0.798-3.412
		c-0.647-1.838-1.441-3.621-2.176-5.428c-0.186-0.453-0.018-0.689,0.473-0.689c0.424-0.002,0.853,0.004,1.269-0.061
		c2.117-0.332,3.976-1.209,5.52-2.709c1.509-1.467,2.447-3.242,2.563-5.348c0.08-1.463-0.035-2.937-0.066-4.404
		c-0.007-0.328-0.028-0.654-0.043-0.985c-0.04,0.008-0.055,0.006-0.059,0.012c-0.175,0.282-0.347,0.567-0.523,0.85
		c-1.213,1.935-2.772,3.592-4.265,5.301c-1.394,1.595-3.086,2.875-4.707,4.216c-1.077,0.895-2.296,1.627-3.498,2.355
		c-1.147,0.697-2.316,1.383-3.544,1.914c-2.181,0.945-4.499,1.432-6.854,1.713c-0.454,0.053-0.676,0.227-0.854,0.662
		c-0.64,1.572-1.37,3.105-2.01,4.676c-0.591,1.451-0.887,2.957-0.578,4.537c0.424,2.166,1.592,3.725,3.65,4.58
		C23.13,65.319,23.877,65.397,24.685,65.192z"/>
	<path fill-rule="evenodd" clip-rule="evenodd" fill="#FDA56F" d="M9.886,7.917c0.993,1.846,4.441,2.617,6.638,0.809
		c1.183-0.974,2.02-2.153,2.265-3.691c0.132-0.828,0.068-1.623-0.57-2.265c-0.033-0.033-0.052-0.083-0.106-0.173
		c0.727-0.223,1.425-0.451,2.132-0.65c1.51-0.424,3.059-0.582,4.62-0.612c1.135-0.022,2.271-0.041,3.405,0.003
		c2.405,0.094,4.794,0.411,7.047,1.262c2.359,0.89,4.598,2.042,6.592,3.637c1.501,1.2,2.983,2.405,4.173,3.931
		c1.52,1.947,2.513,4.146,3.057,6.543c0.176,0.773,0.224,1.582,0.273,2.379c0.057,0.909,0.06,1.823,0.068,2.735
		c0.025,2.669-0.788,5.088-2.179,7.343c-0.417,0.678-0.76,1.401-1.138,2.103c-1.118,2.075-2.189,4.179-3.796,5.943
		c-1.092,1.199-2.105,2.479-3.271,3.601c-2.438,2.346-5.119,4.381-8.066,6.073c-2.242,1.287-4.631,2.092-7.162,2.52
		c-0.976,0.164-1.973,0.223-2.934,0.441c-1.052,0.242-2.046-0.01-3.052-0.172c-2.785-0.449-5.316-1.584-7.719-3.008
		c-1.499-0.889-2.78-2.066-3.949-3.357c-2.338-2.582-3.828-5.592-4.525-9c-0.313-1.533-0.432-3.085-0.409-4.648
		c0.011-0.832,0.002-1.664,0.024-2.495c0.078-2.871,0.607-5.636,1.889-8.237c0.625-1.27,1.173-2.577,1.76-3.865
		c1.036-2.278,2.416-4.328,4.101-6.177C9.332,8.581,9.594,8.258,9.886,7.917z"/>
	<path fill-rule="evenodd" clip-rule="evenodd" fill="#FFFFFF" d="M24.685,65.192c-0.808,0.205-1.555,0.127-2.282-0.176
		c-2.059-0.855-3.227-2.414-3.65-4.58c-0.309-1.58-0.013-3.086,0.578-4.537c0.64-1.57,1.37-3.104,2.01-4.676
		c0.178-0.436,0.399-0.609,0.854-0.662c2.355-0.281,4.674-0.768,6.854-1.713c1.228-0.531,2.396-1.217,3.544-1.914
		c1.202-0.729,2.421-1.461,3.498-2.355c1.621-1.342,3.313-2.621,4.707-4.216c1.492-1.709,3.052-3.366,4.265-5.301
		c0.177-0.282,0.349-0.567,0.523-0.85c0.004-0.006,0.019-0.004,0.059-0.012c0.015,0.331,0.036,0.657,0.043,0.985
		c0.031,1.468,0.146,2.941,0.066,4.404c-0.116,2.106-1.055,3.881-2.563,5.348c-1.544,1.5-3.402,2.377-5.52,2.709
		c-0.416,0.064-0.845,0.059-1.269,0.061c-0.49,0-0.658,0.236-0.473,0.689c0.734,1.807,1.528,3.59,2.176,5.428
		c0.387,1.096,0.544,2.271,0.798,3.412c0.061,0.273,0.094,0.553,0.147,0.879c-0.621-0.07-1.197-0.143-1.776-0.203
		c-0.964-0.098-1.927-0.201-2.893-0.275c-0.346-0.025-0.484,0.125-0.484,0.398c0.001,0.287,0.171,0.422,0.494,0.449
		c0.613,0.055,1.224,0.135,1.837,0.199c0.955,0.096,1.912,0.174,2.866,0.287c0.701,0.084,1.396,0.225,2.097,0.309
		c0.272,0.033,0.564,0.023,0.829-0.041c0.637-0.154,0.851-0.076,1.157,0.498c0.404,0.76,0.361,1.578,0.339,2.4
		c-0.027,0.982-0.619,1.471-1.465,1.686c-0.858,0.219-1.735,0.398-2.615,0.496c-1.639,0.184-3.291,0.248-4.927,0.453
		c-0.884,0.111-1.75,0.387-2.613,0.627c-0.848,0.236-1.688,0.494-2.574,0.533c-1.537,0.068-2.892-0.398-4.039-1.426
		c-0.152-0.137-0.245-0.357-0.323-0.555c-0.094-0.238-0.226-0.385-0.493-0.35c-0.25,0.033-0.413,0.236-0.342,0.51
		c0.07,0.268,0.208,0.52,0.33,0.771C24.505,64.987,24.593,65.071,24.685,65.192z"/>
</g>
</svg>
