<?xml version="1.0" encoding="utf-8"?>
<!-- Generator: Adobe Illustrator 16.0.0, SVG Export Plug-In . SVG Version: 6.00 Build 0)  -->
<!DOCTYPE svg PUBLIC "-//W3C//DTD SVG 1.1//EN" "http://www.w3.org/Graphics/SVG/1.1/DTD/svg11.dtd">
<svg version="1.1" id="벡터_레이어_xA0_이미지_1_"
	 xmlns="http://www.w3.org/2000/svg" xmlns:xlink="http://www.w3.org/1999/xlink" x="0px" y="0px" width="50.917px"
	 height="15.833px" viewBox="0 0 50.917 15.833" enable-background="new 0 0 50.917 15.833" xml:space="preserve">
<g>
	<g>
		<path fill="#FDA56F" d="M4.418,11.959c-1.216,0-2.175-0.345-2.852-1.024c-0.677-0.679-1.02-1.634-1.02-2.84
			c0-1.248,0.37-2.253,1.099-2.987c0.729-0.734,1.638-1.106,2.701-1.106c1.103,0,1.97,0.335,2.578,0.994
			C7.53,5.654,7.837,6.553,7.837,7.671v1.08H3.056c0.117,0.908,0.733,1.351,1.879,1.351c0.781,0,1.477-0.187,2.065-0.556
			l0.191-0.119v1.937l-0.066,0.035C6.432,11.771,5.521,11.959,4.418,11.959z M5.482,7.109C5.451,6.215,5.073,5.78,4.332,5.78
			c-0.328,0-0.606,0.134-0.85,0.41C3.263,6.44,3.117,6.749,3.05,7.109H5.482z"/>
		<path fill="#C6723F" d="M4.347,4.126c1.071,0,1.9,0.318,2.486,0.954c0.586,0.637,0.879,1.5,0.879,2.591v0.955H2.918
			c0.077,1.066,0.749,1.601,2.017,1.601c0.809,0,1.52-0.191,2.132-0.574v1.636c-0.68,0.364-1.563,0.546-2.648,0.546
			c-1.187,0-2.107-0.329-2.763-0.987C1,10.19,0.672,9.272,0.672,8.095c0-1.22,0.354-2.187,1.063-2.899S3.313,4.126,4.347,4.126
			 M2.904,7.234h2.705c0-1.053-0.426-1.579-1.277-1.579c-0.363,0-0.678,0.151-0.943,0.452C3.123,6.409,2.961,6.785,2.904,7.234
			 M4.347,3.876c-1.098,0-2.036,0.385-2.79,1.144C0.804,5.778,0.422,6.813,0.422,8.095c0,1.24,0.355,2.226,1.057,2.929
			c0.7,0.704,1.689,1.061,2.939,1.061c1.123,0,2.054-0.193,2.767-0.575l0.132-0.071v-0.149V9.653V9.202L6.934,9.441
			C6.365,9.796,5.692,9.977,4.935,9.977c-1.022,0-1.58-0.352-1.731-1.101h4.509h0.25v-0.25V7.671c0-1.15-0.317-2.079-0.945-2.76
			C6.384,4.224,5.485,3.876,4.347,3.876L4.347,3.876z M3.206,6.984c0.071-0.275,0.196-0.514,0.37-0.712
			c0.219-0.247,0.466-0.367,0.756-0.367c0.442,0,0.945,0.129,1.019,1.079H3.206L3.206,6.984z"/>
	</g>
	<g>
		<path fill="#FDA56F" d="M8.937,11.78V4.181h2.519v7.599H8.937z M10.21,3.268c-0.414,0-0.759-0.126-1.024-0.375
			c-0.27-0.25-0.406-0.563-0.406-0.927c0-0.375,0.138-0.688,0.408-0.927c0.266-0.234,0.609-0.354,1.022-0.354
			c0.417,0,0.763,0.119,1.027,0.354c0.269,0.24,0.404,0.552,0.404,0.927c0,0.38-0.136,0.695-0.403,0.939
			C10.975,3.146,10.628,3.268,10.21,3.268z"/>
		<path fill="#C6723F" d="M10.21,0.811c0.388,0,0.702,0.107,0.944,0.322c0.241,0.216,0.362,0.493,0.362,0.833
			c0,0.345-0.121,0.627-0.362,0.847c-0.242,0.221-0.557,0.33-0.944,0.33c-0.383,0-0.696-0.113-0.939-0.341
			C9.026,2.575,8.904,2.296,8.904,1.966c0-0.34,0.122-0.617,0.366-0.833C9.514,0.918,9.827,0.811,10.21,0.811 M11.33,4.306v7.349
			H9.062V4.306H11.33 M10.21,0.561c-0.444,0-0.815,0.13-1.104,0.385c-0.3,0.265-0.451,0.607-0.451,1.021
			c0,0.4,0.15,0.743,0.445,1.019c0.289,0.271,0.663,0.408,1.11,0.408c0.45,0,0.825-0.133,1.112-0.396
			c0.295-0.269,0.444-0.615,0.444-1.031c0-0.412-0.149-0.755-0.445-1.02C11.032,0.691,10.658,0.561,10.21,0.561L10.21,0.561z
			 M11.58,4.056h-0.25H9.062h-0.25v0.25v7.349v0.25h0.25h2.269h0.25v-0.25V4.306V4.056L11.58,4.056z"/>
	</g>
	<g>
		<path fill="#FDA56F" d="M17.951,11.78V7.571c0-1.065-0.358-1.583-1.096-1.583c-0.356,0-0.642,0.134-0.873,0.408
			c-0.232,0.275-0.351,0.635-0.351,1.067v4.316h-2.519V4.181h2.519v0.958c0.496-0.739,1.277-1.138,2.265-1.138
			c1.702,0,2.565,1.061,2.565,3.153v4.625H17.951z"/>
		<path fill="#C6723F" d="M17.896,4.126c1.627,0,2.44,1.01,2.44,3.028v4.5h-2.261V7.571c0-1.138-0.407-1.708-1.221-1.708
			c-0.393,0-0.715,0.151-0.969,0.452c-0.254,0.302-0.38,0.685-0.38,1.148v4.191h-2.269V4.306h2.269v1.162h0.028
			C16.076,4.574,16.863,4.126,17.896,4.126 M17.896,3.876c-0.871,0-1.588,0.297-2.14,0.883V4.306v-0.25h-0.25h-2.269h-0.25v0.25
			v7.349v0.25h0.25h2.269h0.25v-0.25V7.463c0-0.407,0.104-0.73,0.321-0.987c0.206-0.244,0.461-0.363,0.777-0.363
			c0.417,0,0.971,0.151,0.971,1.458v4.084v0.25h0.25h2.261h0.25v-0.25v-4.5C20.587,4.445,19.124,3.876,17.896,3.876L17.896,3.876z"
			/>
	</g>
	<g>
		<path fill="#FDA56F" d="M25.059,11.959c-1.674,0-2.522-0.88-2.522-2.615V6.103h-1.191V4.181h1.191V2.625l2.511-0.718v2.273h1.65
			v1.922h-1.65v2.846c0,0.917,0.448,1.023,0.786,1.023c0.218,0,0.446-0.064,0.679-0.192l0.186-0.102v1.966l-0.066,0.035
			C26.273,11.868,25.759,11.959,25.059,11.959z"/>
		<path fill="#C6723F" d="M24.922,2.074v2.232h1.65v1.672h-1.65v2.971c0,0.766,0.304,1.148,0.911,1.148
			c0.239,0,0.486-0.069,0.739-0.208v1.68c-0.335,0.177-0.839,0.266-1.514,0.266c-1.599,0-2.397-0.83-2.397-2.49V5.978H21.47V4.306
			h1.191V2.72L24.922,2.074 M25.172,1.743l-0.318,0.091L22.592,2.48l-0.181,0.052V2.72v1.336H21.47h-0.25v0.25v1.672v0.25h0.25
			h0.941v3.116c0,1.793,0.915,2.74,2.647,2.74c0.722,0,1.255-0.097,1.631-0.295l0.133-0.07v-0.15v-1.68V9.467l-0.37,0.202
			c-0.215,0.118-0.423,0.178-0.619,0.178c-0.327,0-0.661-0.106-0.661-0.898V6.228h1.4h0.25v-0.25V4.306v-0.25h-0.25h-1.4V2.074
			V1.743L25.172,1.743z"/>
	</g>
	<g>
		<path fill="#FDA56F" d="M31.237,11.959c-1.253,0-2.255-0.358-2.977-1.066c-0.723-0.707-1.089-1.678-1.089-2.884
			c0-1.245,0.38-2.236,1.13-2.943c0.749-0.706,1.771-1.064,3.036-1.064c1.248,0,2.243,0.358,2.958,1.066
			c0.716,0.708,1.078,1.654,1.078,2.812c0,1.249-0.374,2.252-1.11,2.981C33.527,11.589,32.51,11.959,31.237,11.959z M31.294,5.988
			c-0.501,0-0.877,0.166-1.15,0.506c-0.277,0.345-0.418,0.845-0.418,1.486c0,1.341,0.518,1.992,1.583,1.992
			c1.012,0,1.504-0.67,1.504-2.049C32.813,6.621,32.315,5.988,31.294,5.988z"/>
		<path fill="#C6723F" d="M31.338,4.126c1.22,0,2.177,0.344,2.87,1.03s1.041,1.594,1.041,2.723c0,1.221-0.358,2.185-1.073,2.893
			s-1.695,1.063-2.938,1.063c-1.226,0-2.188-0.344-2.889-1.03c-0.701-0.687-1.052-1.618-1.052-2.795
			c0-1.216,0.363-2.166,1.091-2.853S30.099,4.126,31.338,4.126 M31.309,10.097c1.086,0,1.629-0.725,1.629-2.174
			c0-1.374-0.548-2.061-1.644-2.061c-0.535,0-0.952,0.185-1.248,0.553c-0.297,0.369-0.445,0.891-0.445,1.564
			C29.601,9.392,30.17,10.097,31.309,10.097 M31.338,3.876c-1.299,0-2.35,0.369-3.122,1.099c-0.775,0.731-1.169,1.753-1.169,3.034
			c0,1.241,0.379,2.241,1.127,2.974c0.745,0.73,1.776,1.102,3.063,1.102c1.306,0,2.354-0.382,3.114-1.135
			c0.762-0.754,1.147-1.787,1.147-3.07c0-1.192-0.375-2.168-1.115-2.9C33.645,4.248,32.62,3.876,31.338,3.876L31.338,3.876z
			 M31.309,9.847c-0.626,0-1.458-0.193-1.458-1.867c0-0.612,0.132-1.086,0.39-1.408c0.249-0.309,0.594-0.459,1.054-0.459
			c0.599,0,1.394,0.188,1.394,1.811C32.688,9.648,31.9,9.847,31.309,9.847L31.309,9.847z"/>
	</g>
	<g>
		<path fill="#FDA56F" d="M36.595,11.78V4.181h2.519v0.967c0.401-0.729,1.019-1.097,1.841-1.097c0.258,0,0.457,0.032,0.609,0.097
			l0.075,0.033v2.381L41.454,6.46C41.201,6.323,40.9,6.253,40.56,6.253c-0.456,0-0.802,0.161-1.056,0.493
			c-0.26,0.337-0.391,0.808-0.391,1.398v3.635H36.595z"/>
		<path fill="#C6723F" d="M40.954,4.176c0.239,0,0.426,0.029,0.56,0.087v2.088c-0.272-0.148-0.591-0.223-0.954-0.223
			c-0.493,0-0.878,0.181-1.155,0.542s-0.416,0.854-0.416,1.475v3.51H36.72V4.306h2.269v1.363h0.028
			C39.376,4.674,40.021,4.176,40.954,4.176 M40.954,3.926c-0.726,0-1.3,0.27-1.716,0.803V4.306v-0.25h-0.25H36.72h-0.25v0.25v7.349
			v0.25h0.25h2.269h0.25v-0.25v-3.51c0-0.563,0.123-1.008,0.364-1.322c0.229-0.299,0.542-0.444,0.957-0.444
			c0.319,0,0.601,0.064,0.835,0.192l0.369,0.201V6.351V4.263V4.099l-0.151-0.065C41.445,3.961,41.229,3.926,40.954,3.926
			L40.954,3.926z"/>
	</g>
	<g>
		<path fill="#FDA56F" d="M43.926,15.232c-0.562,0-1.031-0.065-1.397-0.193l-0.084-0.029v-2.116l0.188,0.111
			c0.28,0.164,0.59,0.248,0.92,0.248c0.533,0,0.895-0.245,1.104-0.748l0.388-0.913l-3.056-7.41h2.79l1.396,4.559
			c0.041,0.13,0.077,0.271,0.11,0.426c0.034-0.132,0.073-0.269,0.118-0.411l1.412-4.573h2.52l-3.05,8.106
			C46.552,14.242,45.422,15.232,43.926,15.232z"/>
		<path fill="#C6723F" d="M50.155,4.306l-2.986,7.938c-0.717,1.908-1.799,2.863-3.243,2.863c-0.551,0-1.003-0.063-1.356-0.187
			v-1.809c0.301,0.177,0.629,0.266,0.983,0.266c0.583,0,0.99-0.275,1.22-0.825l0.388-0.912l-2.985-7.334h2.512l1.37,4.471
			c0.087,0.277,0.153,0.605,0.201,0.983h0.029c0.043-0.277,0.121-0.601,0.236-0.969l1.385-4.485H50.155 M50.517,4.056h-0.361h-2.247
			h-0.185L47.67,4.232l-1.378,4.461l-1.366-4.46l-0.055-0.177h-0.185h-2.512h-0.372L41.943,4.4l2.946,7.238l-0.347,0.816
			c-0.192,0.459-0.507,0.673-0.99,0.673c-0.308,0-0.596-0.078-0.856-0.231l-0.377-0.221v0.437v1.809v0.177l0.167,0.06
			c0.38,0.133,0.864,0.2,1.439,0.2c1.553,0,2.723-1.018,3.478-3.025l2.985-7.938L50.517,4.056L50.517,4.056z"/>
	</g>
</g>
</svg>
