<?xml version="1.0" encoding="utf-8"?>
<!-- Generator: Adobe Illustrator 16.0.0, SVG Export Plug-In . SVG Version: 6.00 Build 0)  -->
<!DOCTYPE svg PUBLIC "-//W3C//DTD SVG 1.1//EN" "http://www.w3.org/Graphics/SVG/1.1/DTD/svg11.dtd">
<svg version="1.1" id="벡터_레이어_xA0_이미지_1_"
	 xmlns="http://www.w3.org/2000/svg" xmlns:xlink="http://www.w3.org/1999/xlink" x="0px" y="0px" width="50.75px" height="50.75px"
	 viewBox="0 0 50.75 50.75" enable-background="new 0 0 50.75 50.75" xml:space="preserve">
<path fill="#FFAD94" d="M16.486,36.559c-2.544,0-4.767,1.375-5.968,3.421c1.986,4.428,4.586,7.523,10.795,8.445
	c1.288-1.256,2.088-3.01,2.088-4.951C23.401,39.655,20.306,36.559,16.486,36.559z"/>
<path fill="#FFAD94" d="M40.988,39.648c-1.239-1.862-3.356-3.09-5.761-3.09c-3.819,0-6.915,3.097-6.915,6.915
	c0,1.89,0.758,3.602,1.985,4.85C36.06,47.266,38.895,44.111,40.988,39.648z"/>
<g>
	<path d="M25.375,7.195c-0.789,0-1.537-0.169-2.106-0.476c-0.649-0.351-1.006-0.844-1.006-1.39c0-0.547,0.356-1.04,1.006-1.39
		c0.569-0.308,1.317-0.477,2.106-0.477c0.79,0,1.538,0.169,2.107,0.477c0.648,0.35,1.006,0.843,1.006,1.39
		c0,0.546-0.357,1.039-1.006,1.39C26.913,7.026,26.165,7.195,25.375,7.195z M25.375,4.275c-1.317,0-2.302,0.557-2.302,1.055
		s0.984,1.055,2.302,1.055c1.318,0,2.303-0.557,2.303-1.055S26.693,4.275,25.375,4.275z"/>
</g>
<path d="M50.367,22.761c-0.085-2.613-0.844-5.361-2.192-7.946c-1.866-3.574-4.739-6.606-8.308-8.767
	c-4.166-2.521-9.113-3.801-14.704-3.801c-2.83,0-5.548,0.358-8.077,1.064c-2.353,0.656-4.556,1.617-6.551,2.854
	c-3.643,2.261-6.515,5.381-8.306,9.023c-1.235,2.512-1.876,5.146-1.854,7.615c0.023,2.523,0.741,4.771,2.075,6.502
	c1.179,1.528,4.039,3.238,4.951,3.704c0.295,0.779,0.576,1.545,0.847,2.282c2.938,8.025,5.062,13.824,17.342,13.824
	c3.074,0,5.61-0.396,7.754-1.208c1.989-0.755,3.634-1.87,5.025-3.409c2.628-2.906,4.062-7.022,5.551-11.394
	c1.845-0.232,3.894-2.516,4.756-3.755C49.868,27.643,50.452,25.363,50.367,22.761z M37.769,43.956
	c-2.684,2.968-6.554,4.35-12.178,4.35c-11.713,0-13.649-5.287-16.58-13.291C8.759,34.327,8.5,33.62,8.228,32.896
	c0.019-0.015,0.04-0.039,0.059-0.056c0.063-0.056,0.134-0.122,0.203-0.192c0.034-0.035,0.07-0.069,0.106-0.107
	c0.106-0.113,0.221-0.238,0.35-0.382c1.61-1.789,5.382-5.98,16.096-5.98c10.725,0,15.107,4.013,17.214,5.941
	c0.208,0.19,0.387,0.351,0.554,0.495c0.052,0.045,0.107,0.089,0.156,0.129c0.057,0.047,0.12,0.104,0.174,0.144
	C41.682,37.162,40.277,41.182,37.769,43.956z M48.012,28.888c-0.901,1.293-2.834,3.326-4.279,3.427
	c-0.237-0.159-0.547-0.442-0.93-0.793c-2.182-1.997-6.723-6.153-17.762-6.153c-11.075,0-15.016,4.379-16.698,6.248
	c-0.223,0.247-0.468,0.52-0.623,0.648c-0.914-0.479-3.574-2.089-4.626-3.453c-2.508-3.253-2.561-8.336-0.137-13.265
	C6.803,7.728,15.104,3.059,25.163,3.059c14.403,0,20.388,8.484,22.292,12.132C50.043,20.146,50.267,25.651,48.012,28.888z"/>
</svg>
